<svg xmlns="http://www.w3.org/2000/svg" width="1814.043701171875" height="1039.7799072265625" viewBox="-749.53125 -310.5116271972656 1814.043701171875 1039.7799072265625"><title>Neo4j Graph Visualization</title><desc>Created using Neo4j (http://www.neo4j.com/)</desc><g class="layer relationships"><g class="relationship" transform="translate(-249.0738733407798 448.7546441635868) rotate(333.16208720820816)"><path class="outline" fill="#A5ABB6" stroke="none" d="M 25 0.5 L 545.1772627498669 0.5 L 545.1772627498669 -0.5 L 25 -0.5 Z M 576.5249189998669 0.5 L 1096.7021817497339 0.5 L 1096.7021817497339 3.5 L 1103.7021817497339 0 L 1096.7021817497339 -3.5 L 1096.7021817497339 -0.5 L 576.5249189998669 -0.5 Z"/><text text-anchor="middle" pointer-events="none" font-size="8px" fill="#000000" x="560.8510908748669" y="3" font-family="sans-serif">CALLS</text></g><g class="relationship" transform="translate(-249.0738733407798 448.7546441635868) rotate(255.46296238158686)"><path class="outline" fill="#A5ABB6" stroke="none" d="M 25 0.5 L 155.44151658582786 0.5 L 155.44151658582786 -0.5 L 25 -0.5 Z M 186.78917283582786 0.5 L 317.2306894216557 0.5 L 317.2306894216557 3.5 L 324.2306894216557 0 L 317.2306894216557 -3.5 L 317.2306894216557 -0.5 L 186.78917283582786 -0.5 Z"/><text text-anchor="middle" pointer-events="none" font-size="8px" fill="#000000" x="171.11534471082786" y="3" transform="rotate(180 171.11534471082786 0)" font-family="sans-serif">CALLS</text></g><g class="relationship" transform="translate(-249.0738733407798 448.7546441635868) rotate(359.3186834963709)"><path class="outline" fill="#A5ABB6" stroke="none" d="M 25 0.5 L 365.70611031376285 0.5 L 365.70611031376285 -0.5 L 25 -0.5 Z M 397.05376656376285 0.5 L 737.7598768775257 0.5 L 737.7598768775257 3.5 L 744.7598768775257 0 L 737.7598768775257 -3.5 L 737.7598768775257 -0.5 L 397.05376656376285 -0.5 Z"/><text text-anchor="middle" pointer-events="none" font-size="8px" fill="#000000" x="381.37993843876285" y="3" font-family="sans-serif">CALLS</text></g><g class="relationship" transform="translate(758.0527218531975 -60.81834995952815) rotate(508.3824555466183)"><path class="outline" fill="#A5ABB6" stroke="none" d="M 24.018736134675446,-6.953439040707552 L 24.277555179777966,-5.987513214418485 A 813.0666697526035 813.0666697526035 0 0 1 215.9642545489045,-33.475853893890644 L 215.94119316857928,-34.47558794489498 A 814.0666697526035 814.0666697526035 0 0 0 24.018736134675446,-6.953439040707552 Z M 247.3059484588863,-34.59470721165201 L 247.29048135443787,-33.594826834466744 A 813.0666697526035 813.0666697526035 0 0 1 439.1804423789665,-7.563260490017509 L 438.4260180897824,-4.659668922339808 L 446.0812267517452,-6.286869076534202 L 440.18634143121204,-11.434715913587777 L 439.43191714202794,-8.531124345910076 A 814.0666697526035 814.0666697526035 0 0 0 247.3059484588863,-34.59470721165201"/><text text-anchor="middle" pointer-events="none" font-size="8px" fill="#000000" x="231.62489599211452" y="-31.186220853063674" transform="rotate(180 231.62489599211452 -34.18622085306367)" font-family="sans-serif">CALLS</text></g><g class="relationship" transform="translate(758.0527218531975 -60.81834995952815) rotate(449.90842480187376)"><path class="outline" fill="#A5ABB6" stroke="none" d="M 25 0.5 L 257.8522965106012 0.5 L 257.8522965106012 -0.5 L 25 -0.5 Z M 289.1999527606012 0.5 L 522.0522492712024 0.5 L 522.0522492712024 3.5 L 529.0522492712024 0 L 522.0522492712024 -3.5 L 522.0522492712024 -0.5 L 289.1999527606012 -0.5 Z"/><text text-anchor="middle" pointer-events="none" font-size="8px" fill="#000000" x="273.5261246356012" y="3" font-family="sans-serif">CALLS</text></g><g class="relationship" transform="translate(758.0527218531975 -60.81834995952815) rotate(531.7799597814391)"><path class="outline" fill="#A5ABB6" stroke="none" d="M 25 0.5 L 370.4328100530143 0.5 L 370.4328100530143 -0.5 L 25 -0.5 Z M 401.7804663030143 0.5 L 747.2132763560286 0.5 L 747.2132763560286 3.5 L 754.2132763560286 0 L 747.2132763560286 -3.5 L 747.2132763560286 -0.5 L 401.7804663030143 -0.5 Z"/><text text-anchor="middle" pointer-events="none" font-size="8px" fill="#000000" x="386.1066381780143" y="3" transform="rotate(180 386.1066381780143 0)" font-family="sans-serif">CALLS</text></g><g class="relationship" transform="translate(758.0527218531975 -60.81834995952815) rotate(431.9946656290798)"><path class="outline" fill="#A5ABB6" stroke="none" d="M 24.018736134675446,-6.953439040707552 L 24.277555179777966,-5.987513214418485 A 395.4203874375314 395.4203874375314 0 0 1 108.23366199055135,-19.033444508942523 L 108.1871640838576,-20.032362896336167 A 396.4203874375314 396.4203874375314 0 0 0 24.018736134675446,-6.953439040707552 Z M 139.5654580818472,-20.249703268794235 L 139.53280190113182,-19.250236624097624 A 395.4203874375314 395.4203874375314 0 0 1 223.66156884481612,-7.3685378104312615 L 222.92532693880372,-4.460282688226325 L 230.5702044476297,-6.135349216769861 L 224.6432247194993,-11.246211306704511 L 223.9069828134869,-8.337956184499575 A 396.4203874375314 396.4203874375314 0 0 0 139.5654580818472,-20.249703268794235"/><text text-anchor="middle" pointer-events="none" font-size="8px" fill="#000000" x="123.87762291104185" y="-16.951639229328748" font-family="sans-serif">CALLS</text></g><g class="relationship" transform="translate(758.0527218531975 -60.81834995952815) rotate(475.38171628582694)"><path class="outline" fill="#A5ABB6" stroke="none" d="M 25 0.5 L 257.7687664278313 0.5 L 257.7687664278313 -0.5 L 25 -0.5 Z M 289.1164226778313 0.5 L 521.8851891056626 0.5 L 521.8851891056626 3.5 L 528.8851891056626 0 L 521.8851891056626 -3.5 L 521.8851891056626 -0.5 L 289.1164226778313 -0.5 Z"/><text text-anchor="middle" pointer-events="none" font-size="8px" fill="#000000" x="273.4425945528313" y="3" transform="rotate(180 273.4425945528313 0)" font-family="sans-serif">CALLS</text></g><g class="relationship" transform="translate(758.0527218531975 -60.81834995952815) rotate(465.09372938650466)"><path class="outline" fill="#A5ABB6" stroke="none" d="M 25 0.5 L 99.71824143167721 0.5 L 99.71824143167721 -0.5 L 25 -0.5 Z M 131.0658976816772 0.5 L 205.78413911335443 0.5 L 205.78413911335443 3.5 L 212.78413911335443 0 L 205.78413911335443 -3.5 L 205.78413911335443 -0.5 L 131.0658976816772 -0.5 Z"/><text text-anchor="middle" pointer-events="none" font-size="8px" fill="#000000" x="115.39206955667721" y="3" transform="rotate(180 115.39206955667721 0)" font-family="sans-serif">CALLS</text></g><g class="relationship" transform="translate(-662.2647366942977 -60.54661356395846) rotate(333.7097549693319)"><path class="outline" fill="#A5ABB6" stroke="none" d="M 25 0.5 L 112.9976172345059 0.5 L 112.9976172345059 -0.5 L 25 -0.5 Z M 144.3452734845059 0.5 L 232.3428907190118 0.5 L 232.3428907190118 3.5 L 239.3428907190118 0 L 232.3428907190118 -3.5 L 232.3428907190118 -0.5 L 144.3452734845059 -0.5 Z"/><text text-anchor="middle" pointer-events="none" font-size="8px" fill="#000000" x="128.6714453595059" y="3" font-family="sans-serif">CALLS</text></g><g class="relationship" transform="translate(-662.2647366942977 -60.54661356395846) rotate(479.0630162311387)"><path class="outline" fill="#A5ABB6" stroke="none" d="M 25 0.5 L 40.79936928677806 0.5 L 40.79936928677806 -0.5 L 25 -0.5 Z M 72.14702553677806 0.5 L 87.94639482355612 0.5 L 87.94639482355612 3.5 L 94.94639482355612 0 L 87.94639482355612 -3.5 L 87.94639482355612 -0.5 L 72.14702553677806 -0.5 Z"/><text text-anchor="middle" pointer-events="none" font-size="8px" fill="#000000" x="56.47319741177806" y="3" transform="rotate(180 56.47319741177806 0)" font-family="sans-serif">CALLS</text></g><g class="relationship" transform="translate(632.8989540609059 653.4777140492695) rotate(211.84992921359355)"><path class="outline" fill="#A5ABB6" stroke="none" d="M 25 0.5 L 405.9485098561315 0.5 L 405.9485098561315 -0.5 L 25 -0.5 Z M 437.2961661061315 0.5 L 818.244675962263 0.5 L 818.244675962263 3.5 L 825.244675962263 0 L 818.244675962263 -3.5 L 818.244675962263 -0.5 L 437.2961661061315 -0.5 Z"/><text text-anchor="middle" pointer-events="none" font-size="8px" fill="#000000" x="421.6223379811315" y="3" transform="rotate(180 421.6223379811315 0)" font-family="sans-serif">CALLS</text></g><g class="relationship" transform="translate(-60.52152017074262 700.2682920173738) rotate(222.3700411094735)"><path class="outline" fill="#A5ABB6" stroke="none" d="M 25 0.5 L 51.93586379309967 0.5 L 51.93586379309967 -0.5 L 25 -0.5 Z M 83.28352004309967 0.5 L 110.21938383619934 0.5 L 110.21938383619934 3.5 L 117.21938383619934 0 L 110.21938383619934 -3.5 L 110.21938383619934 -0.5 L 83.28352004309967 -0.5 Z"/><text text-anchor="middle" pointer-events="none" font-size="8px" fill="#000000" x="67.60969191809967" y="3" transform="rotate(180 67.60969191809967 0)" font-family="sans-serif">CALLS</text></g><g class="relationship" transform="translate(-165.59431306990226 604.424349427774) rotate(304.1748190482883)"><path class="outline" fill="#A5ABB6" stroke="none" d="M 25 0.5 L 230.44237176753643 0.5 L 230.44237176753643 -0.5 L 25 -0.5 Z M 261.79002801753643 0.5 L 467.23239978507286 0.5 L 467.23239978507286 3.5 L 474.23239978507286 0 L 467.23239978507286 -3.5 L 467.23239978507286 -0.5 L 261.79002801753643 -0.5 Z"/><text text-anchor="middle" pointer-events="none" font-size="8px" fill="#000000" x="246.11619989253643" y="3" font-family="sans-serif">CALLS</text></g><g class="relationship" transform="translate(-165.59431306990226 604.424349427774) rotate(280.80499667666476)"><path class="outline" fill="#A5ABB6" stroke="none" d="M 25 0.5 L 184.24130497622022 0.5 L 184.24130497622022 -0.5 L 25 -0.5 Z M 215.58896122622022 0.5 L 374.83026620244044 0.5 L 374.83026620244044 3.5 L 381.83026620244044 0 L 374.83026620244044 -3.5 L 374.83026620244044 -0.5 L 215.58896122622022 -0.5 Z"/><text text-anchor="middle" pointer-events="none" font-size="8px" fill="#000000" x="199.91513310122022" y="3" font-family="sans-serif">CALLS</text></g><g class="relationship" transform="translate(-165.59431306990226 604.424349427774) rotate(486.1169797124823)"><path class="outline" fill="#A5ABB6" stroke="none" d="M 25 0.5 L 35.37643591775071 0.5 L 35.37643591775071 -0.5 L 25 -0.5 Z M 66.72409216775071 0.5 L 77.10052808550142 0.5 L 77.10052808550142 3.5 L 84.10052808550142 0 L 77.10052808550142 -3.5 L 77.10052808550142 -0.5 L 66.72409216775071 -0.5 Z"/><text text-anchor="middle" pointer-events="none" font-size="8px" fill="#000000" x="51.05026404275071" y="3" transform="rotate(180 51.05026404275071 0)" font-family="sans-serif">CALLS</text></g><g class="relationship" transform="translate(357.5799076959852 185.72324098776153) rotate(417.2896544567025)"><path class="outline" fill="#A5ABB6" stroke="none" d="M 25 0.5 L 131.6903558415204 0.5 L 131.6903558415204 -0.5 L 25 -0.5 Z M 163.0380120915204 0.5 L 269.7283679330408 0.5 L 269.7283679330408 3.5 L 276.7283679330408 0 L 269.7283679330408 -3.5 L 269.7283679330408 -0.5 L 163.0380120915204 -0.5 Z"/><text text-anchor="middle" pointer-events="none" font-size="8px" fill="#000000" x="147.3641839665204" y="3" font-family="sans-serif">CALLS</text></g><g class="relationship" transform="translate(357.5799076959852 185.72324098776153) rotate(328.3824555466183)"><path class="outline" fill="#A5ABB6" stroke="none" d="M 24.018736134675446,-6.953439040707552 L 24.277555179777966,-5.987513214418485 A 813.0666697526035 813.0666697526035 0 0 1 215.9642545489045,-33.475853893890644 L 215.94119316857928,-34.47558794489498 A 814.0666697526035 814.0666697526035 0 0 0 24.018736134675446,-6.953439040707552 Z M 247.3059484588863,-34.59470721165201 L 247.29048135443787,-33.594826834466744 A 813.0666697526035 813.0666697526035 0 0 1 439.1804423789665,-7.563260490017509 L 438.4260180897824,-4.659668922339808 L 446.0812267517452,-6.286869076534202 L 440.18634143121204,-11.434715913587777 L 439.43191714202794,-8.531124345910076 A 814.0666697526035 814.0666697526035 0 0 0 247.3059484588863,-34.59470721165201"/><text text-anchor="middle" pointer-events="none" font-size="8px" fill="#000000" x="231.62489599211452" y="-31.186220853063674" font-family="sans-serif">CALLS</text></g><g class="relationship" transform="translate(357.5799076959852 185.72324098776153) rotate(200.0268741695304)"><path class="outline" fill="#A5ABB6" stroke="none" d="M 25 0.5 L 178.12387337168968 0.5 L 178.12387337168968 -0.5 L 25 -0.5 Z M 209.47152962168968 0.5 L 362.59540299337937 0.5 L 362.59540299337937 3.5 L 369.59540299337937 0 L 362.59540299337937 -3.5 L 362.59540299337937 -0.5 L 209.47152962168968 -0.5 Z"/><text text-anchor="middle" pointer-events="none" font-size="8px" fill="#000000" x="193.79770149668968" y="3" transform="rotate(180 193.79770149668968 0)" font-family="sans-serif">CALLS</text></g><g class="relationship" transform="translate(-436.81958662468054 53.153977812571284) rotate(389.8991125489897)"><path class="outline" fill="#A5ABB6" stroke="none" d="M 25 0.5 L 38.552710227796126 0.5 L 38.552710227796126 -0.5 L 25 -0.5 Z M 69.90036647779613 0.5 L 83.45307670559225 0.5 L 83.45307670559225 3.5 L 90.45307670559225 0 L 83.45307670559225 -3.5 L 83.45307670559225 -0.5 L 69.90036647779613 -0.5 Z"/><text text-anchor="middle" pointer-events="none" font-size="8px" fill="#000000" x="54.226538352796126" y="3" font-family="sans-serif">CALLS</text></g><g class="relationship" transform="translate(-436.81958662468054 53.153977812571284) rotate(272.86623231101424)"><path class="outline" fill="#A5ABB6" stroke="none" d="M 24.018736134675446,-6.953439040707552 L 24.277555179777966,-5.987513214418485 A 349.2598234007555 349.2598234007555 0 0 1 96.36912737741989,-17.40831062292557 L 96.3167207719037,-18.406936452602622 A 350.2598234007555 350.2598234007555 0 0 0 24.018736134675446,-6.953439040707552 Z M 127.69777356708738,-18.645986441899026 L 127.66058653182999,-17.646678118903196 A 349.2598234007555 349.2598234007555 0 0 1 199.9177817225535,-7.3254796156448405 L 199.18556066379432,-4.41620954892543 L 206.82811538802534,-6.10184215632662 L 200.89407646756575,-11.204506371270721 L 200.16185540880656,-8.295236304551311 A 350.2598234007555 350.2598234007555 0 0 0 127.69777356708738,-18.645986441899026"/><text text-anchor="middle" pointer-events="none" font-size="8px" fill="#000000" x="112.0083772936757" y="-15.378105504351026" font-family="sans-serif">CALLS</text></g><g class="relationship" transform="translate(1035.5123700387585 195.07127736032396) rotate(183.90474008000018)"><path class="outline" fill="#A5ABB6" stroke="none" d="M 25 0.5 L 80.40623531988707 0.5 L 80.40623531988707 -0.5 L 25 -0.5 Z M 111.75389156988707 0.5 L 167.16012688977415 0.5 L 167.16012688977415 3.5 L 174.16012688977415 0 L 167.16012688977415 -3.5 L 167.16012688977415 -0.5 L 111.75389156988707 -0.5 Z"/><text text-anchor="middle" pointer-events="none" font-size="8px" fill="#000000" x="96.08006344488707" y="3" transform="rotate(180 96.08006344488707 0)" font-family="sans-serif">CALLS</text></g><g class="relationship" transform="translate(1035.5123700387585 195.07127736032396) rotate(222.6840729351146)"><path class="outline" fill="#A5ABB6" stroke="none" d="M 25 0.5 L 169.5477642678341 0.5 L 169.5477642678341 -0.5 L 25 -0.5 Z M 200.8954205178341 0.5 L 345.4431847856682 0.5 L 345.4431847856682 3.5 L 352.4431847856682 0 L 345.4431847856682 -3.5 L 345.4431847856682 -0.5 L 200.8954205178341 -0.5 Z"/><text text-anchor="middle" pointer-events="none" font-size="8px" fill="#000000" x="185.2215923928341" y="3" transform="rotate(180 185.2215923928341 0)" font-family="sans-serif">CALLS</text></g><g class="relationship" transform="translate(-98.79947790732001 -3.025276613397587) rotate(447.3904246205826)"><path class="outline" fill="#A5ABB6" stroke="none" d="M 25 0.5 L 84.8500932986377 0.5 L 84.8500932986377 -0.5 L 25 -0.5 Z M 116.1977495486377 0.5 L 176.0478428472754 0.5 L 176.0478428472754 3.5 L 183.0478428472754 0 L 176.0478428472754 -3.5 L 176.0478428472754 -0.5 L 116.1977495486377 -0.5 Z"/><text text-anchor="middle" pointer-events="none" font-size="8px" fill="#000000" x="100.5239214236377" y="3" font-family="sans-serif">CALLS</text></g><g class="relationship" transform="translate(11.956262296674737 -225.03120802801786) rotate(479.41028576699347)"><path class="outline" fill="#A5ABB6" stroke="none" d="M 25 0.5 L 43.688736090582346 0.5 L 43.688736090582346 -0.5 L 25 -0.5 Z M 75.03639234058235 0.5 L 93.72512843116469 0.5 L 93.72512843116469 3.5 L 100.72512843116469 0 L 93.72512843116469 -3.5 L 93.72512843116469 -0.5 L 75.03639234058235 -0.5 Z"/><text text-anchor="middle" pointer-events="none" font-size="8px" fill="#000000" x="59.362564215582346" y="3" transform="rotate(180 59.362564215582346 0)" font-family="sans-serif">CALLS</text></g><g class="relationship" transform="translate(11.956262296674737 -225.03120802801786) rotate(182.0795041938735)"><path class="outline" fill="#A5ABB6" stroke="none" d="M 25 0.5 L 55.450849294875326 0.5 L 55.450849294875326 -0.5 L 25 -0.5 Z M 86.79850554487533 0.5 L 117.24935483975065 0.5 L 117.24935483975065 3.5 L 124.24935483975065 0 L 117.24935483975065 -3.5 L 117.24935483975065 -0.5 L 86.79850554487533 -0.5 Z"/><text text-anchor="middle" pointer-events="none" font-size="8px" fill="#000000" x="71.12467741987533" y="3" transform="rotate(180 71.12467741987533 0)" font-family="sans-serif">CALLS</text></g><g class="relationship" transform="translate(-247.6142627327489 3.6906876453235355) rotate(411.79570673231956)"><path class="outline" fill="#A5ABB6" stroke="none" d="M 25 0.5 L 108.79348348960693 0.5 L 108.79348348960693 -0.5 L 25 -0.5 Z M 140.14113973960693 0.5 L 223.93462322921386 0.5 L 223.93462322921386 3.5 L 230.93462322921386 0 L 223.93462322921386 -3.5 L 223.93462322921386 -0.5 L 140.14113973960693 -0.5 Z"/><text text-anchor="middle" pointer-events="none" font-size="8px" fill="#000000" x="124.46731161460693" y="3" font-family="sans-serif">CALLS</text></g><g class="relationship" transform="translate(-247.6142627327489 3.6906876453235355) rotate(489.7867546454854)"><path class="outline" fill="#A5ABB6" stroke="none" d="M 25 0.5 L 50.4574180644677 0.5 L 50.4574180644677 -0.5 L 25 -0.5 Z M 81.8050743144677 0.5 L 107.2624923789354 0.5 L 107.2624923789354 3.5 L 114.2624923789354 0 L 107.2624923789354 -3.5 L 107.2624923789354 -0.5 L 81.8050743144677 -0.5 Z"/><text text-anchor="middle" pointer-events="none" font-size="8px" fill="#000000" x="66.1312461894677" y="3" transform="rotate(180 66.1312461894677 0)" font-family="sans-serif">CALLS</text></g><g class="relationship" transform="translate(758.9382569367372 493.2331916411558) rotate(242.30126311997537)"><path class="outline" fill="#A5ABB6" stroke="none" d="M 25 0.5 L 78.4833716836439 0.5 L 78.4833716836439 -0.5 L 25 -0.5 Z M 109.8310279336439 0.5 L 163.3143996172878 0.5 L 163.3143996172878 3.5 L 170.3143996172878 0 L 163.3143996172878 -3.5 L 163.3143996172878 -0.5 L 109.8310279336439 -0.5 Z"/><text text-anchor="middle" pointer-events="none" font-size="8px" fill="#000000" x="94.1571998086439" y="3" transform="rotate(180 94.1571998086439 0)" font-family="sans-serif">CALLS</text></g><g class="relationship" transform="translate(758.9382569367372 493.2331916411558) rotate(259.04534640272396)"><path class="outline" fill="#A5ABB6" stroke="none" d="M 25 0.5 L 146.07265399130037 0.5 L 146.07265399130037 -0.5 L 25 -0.5 Z M 177.42031024130037 0.5 L 298.49296423260074 0.5 L 298.49296423260074 3.5 L 305.49296423260074 0 L 298.49296423260074 -3.5 L 298.49296423260074 -0.5 L 177.42031024130037 -0.5 Z"/><text text-anchor="middle" pointer-events="none" font-size="8px" fill="#000000" x="161.74648211630037" y="3" transform="rotate(180 161.74648211630037 0)" font-family="sans-serif">CALLS</text></g><g class="relationship" transform="translate(758.9382569367372 493.2331916411558) rotate(284.02676927555973)"><path class="outline" fill="#A5ABB6" stroke="none" d="M 25 0.5 L 141.47855279086838 0.5 L 141.47855279086838 -0.5 L 25 -0.5 Z M 172.82620904086838 0.5 L 289.30476183173676 0.5 L 289.30476183173676 3.5 L 296.30476183173676 0 L 289.30476183173676 -3.5 L 289.30476183173676 -0.5 L 172.82620904086838 -0.5 Z"/><text text-anchor="middle" pointer-events="none" font-size="8px" fill="#000000" x="157.15238091586838" y="3" font-family="sans-serif">CALLS</text></g><g class="relationship" transform="translate(758.9382569367372 493.2331916411558) rotate(312.84891038324446)"><path class="outline" fill="#A5ABB6" stroke="none" d="M 25 0.5 L 184.16933451255946 0.5 L 184.16933451255946 -0.5 L 25 -0.5 Z M 215.51699076255946 0.5 L 374.6863252751189 0.5 L 374.6863252751189 3.5 L 381.6863252751189 0 L 374.6863252751189 -3.5 L 374.6863252751189 -0.5 L 215.51699076255946 -0.5 Z"/><text text-anchor="middle" pointer-events="none" font-size="8px" fill="#000000" x="199.84316263755946" y="3" font-family="sans-serif">CALLS</text></g><g class="relationship" transform="translate(758.9382569367372 493.2331916411558) rotate(219.8368811255409)"><path class="outline" fill="#A5ABB6" stroke="none" d="M 25 0.5 L 142.0166922062702 0.5 L 142.0166922062702 -0.5 L 25 -0.5 Z M 173.3643484562702 0.5 L 290.3810406625404 0.5 L 290.3810406625404 3.5 L 297.3810406625404 0 L 290.3810406625404 -3.5 L 290.3810406625404 -0.5 L 173.3643484562702 -0.5 Z"/><text text-anchor="middle" pointer-events="none" font-size="8px" fill="#000000" x="157.6905203312702" y="3" transform="rotate(180 157.6905203312702 0)" font-family="sans-serif">CALLS</text></g><g class="relationship" transform="translate(758.9382569367372 493.2331916411558) rotate(488.1865937143428)"><path class="outline" fill="#A5ABB6" stroke="none" d="M 25 0.5 L 82.76268745115402 0.5 L 82.76268745115402 -0.5 L 25 -0.5 Z M 114.11034370115402 0.5 L 171.87303115230804 0.5 L 171.87303115230804 3.5 L 178.87303115230804 0 L 171.87303115230804 -3.5 L 171.87303115230804 -0.5 L 114.11034370115402 -0.5 Z"/><text text-anchor="middle" pointer-events="none" font-size="8px" fill="#000000" x="98.43651557615402" y="3" transform="rotate(180 98.43651557615402 0)" font-family="sans-serif">CALLS</text></g><g class="relationship" transform="translate(758.9382569367372 493.2331916411558) rotate(192.68329228779112)"><path class="outline" fill="#A5ABB6" stroke="none" d="M 25 0.5 L 102.95973816921565 0.5 L 102.95973816921565 -0.5 L 25 -0.5 Z M 134.30739441921565 0.5 L 212.2671325884313 0.5 L 212.2671325884313 3.5 L 219.2671325884313 0 L 212.2671325884313 -3.5 L 212.2671325884313 -0.5 L 134.30739441921565 -0.5 Z"/><text text-anchor="middle" pointer-events="none" font-size="8px" fill="#000000" x="118.63356629421565" y="3" transform="rotate(180 118.63356629421565 0)" font-family="sans-serif">CALLS</text></g><g class="relationship" transform="translate(758.9382569367372 493.2331916411558) rotate(518.6372080669456)"><path class="outline" fill="#A5ABB6" stroke="none" d="M 25 0.5 L 73.05122669569444 0.5 L 73.05122669569444 -0.5 L 25 -0.5 Z M 104.39888294569444 0.5 L 152.45010964138888 0.5 L 152.45010964138888 3.5 L 159.45010964138888 0 L 152.45010964138888 -3.5 L 152.45010964138888 -0.5 L 104.39888294569444 -0.5 Z"/><text text-anchor="middle" pointer-events="none" font-size="8px" fill="#000000" x="88.72505482069444" y="3" transform="rotate(180 88.72505482069444 0)" font-family="sans-serif">CALLS</text></g><g class="relationship" transform="translate(-49.782337682306135 -115.50882131339117) rotate(526.5991320719196)"><path class="outline" fill="#A5ABB6" stroke="none" d="M 25 0.5 L 325.5876668797892 0.5 L 325.5876668797892 -0.5 L 25 -0.5 Z M 356.9353231297892 0.5 L 657.5229900095784 0.5 L 657.5229900095784 3.5 L 664.5229900095784 0 L 657.5229900095784 -3.5 L 657.5229900095784 -0.5 L 356.9353231297892 -0.5 Z"/><text text-anchor="middle" pointer-events="none" font-size="8px" fill="#000000" x="341.2614950047892" y="3" transform="rotate(180 341.2614950047892 0)" font-family="sans-serif">CALLS</text></g><g class="relationship" transform="translate(-49.782337682306135 -115.50882131339117) rotate(363.8730171085406)"><path class="outline" fill="#A5ABB6" stroke="none" d="M 25 0.5 L 385.66828031717966 0.5 L 385.66828031717966 -0.5 L 25 -0.5 Z M 417.01593656717966 0.5 L 777.6842168843593 0.5 L 777.6842168843593 3.5 L 784.6842168843593 0 L 777.6842168843593 -3.5 L 777.6842168843593 -0.5 L 417.01593656717966 -0.5 Z"/><text text-anchor="middle" pointer-events="none" font-size="8px" fill="#000000" x="401.34210844217966" y="3" font-family="sans-serif">CALLS</text></g><g class="relationship" transform="translate(-49.782337682306135 -115.50882131339117) rotate(232.74636284357183)"><path class="outline" fill="#A5ABB6" stroke="none" d="M 25 0.5 L 53.02676377545235 0.5 L 53.02676377545235 -0.5 L 25 -0.5 Z M 84.37442002545235 0.5 L 112.4011838009047 0.5 L 112.4011838009047 3.5 L 119.4011838009047 0 L 112.4011838009047 -3.5 L 112.4011838009047 -0.5 L 84.37442002545235 -0.5 Z"/><text text-anchor="middle" pointer-events="none" font-size="8px" fill="#000000" x="68.70059190045235" y="3" transform="rotate(180 68.70059190045235 0)" font-family="sans-serif">CALLS</text></g><g class="relationship" transform="translate(-49.782337682306135 -115.50882131339117) rotate(334.13997408085993)"><path class="outline" fill="#A5ABB6" stroke="none" d="M 25 0.5 L 171.12037673189658 0.5 L 171.12037673189658 -0.5 L 25 -0.5 Z M 202.46803298189658 0.5 L 348.58840971379317 0.5 L 348.58840971379317 3.5 L 355.58840971379317 0 L 348.58840971379317 -3.5 L 348.58840971379317 -0.5 L 202.46803298189658 -0.5 Z"/><text text-anchor="middle" pointer-events="none" font-size="8px" fill="#000000" x="186.79420485689658" y="3" font-family="sans-serif">CALLS</text></g><g class="relationship" transform="translate(-425.2649847464161 -177.62898392912493) rotate(503.0710169428173)"><path class="outline" fill="#A5ABB6" stroke="none" d="M 25 0.5 L 165.51052502048313 0.5 L 165.51052502048313 -0.5 L 25 -0.5 Z M 196.85818127048313 0.5 L 337.36870629096626 0.5 L 337.36870629096626 3.5 L 344.36870629096626 0 L 337.36870629096626 -3.5 L 337.36870629096626 -0.5 L 196.85818127048313 -0.5 Z"/><text text-anchor="middle" pointer-events="none" font-size="8px" fill="#000000" x="181.18435314548313" y="3" transform="rotate(180 181.18435314548313 0)" font-family="sans-serif">CALLS</text></g><g class="relationship" transform="translate(-425.2649847464161 -177.62898392912493) rotate(452.86623231101424)"><path class="outline" fill="#A5ABB6" stroke="none" d="M 24.018736134675446,-6.953439040707552 L 24.277555179777966,-5.987513214418485 A 349.2598234007555 349.2598234007555 0 0 1 96.36912737741989,-17.40831062292557 L 96.3167207719037,-18.406936452602622 A 350.2598234007555 350.2598234007555 0 0 0 24.018736134675446,-6.953439040707552 Z M 127.69777356708738,-18.645986441899026 L 127.66058653182999,-17.646678118903196 A 349.2598234007555 349.2598234007555 0 0 1 199.9177817225535,-7.3254796156448405 L 199.18556066379432,-4.41620954892543 L 206.82811538802534,-6.10184215632662 L 200.89407646756575,-11.204506371270721 L 200.16185540880656,-8.295236304551311 A 350.2598234007555 350.2598234007555 0 0 0 127.69777356708738,-18.645986441899026"/><text text-anchor="middle" pointer-events="none" font-size="8px" fill="#000000" x="112.0083772936757" y="-15.378105504351026" transform="rotate(180 112.0083772936757 -18.378105504351026)" font-family="sans-serif">CALLS</text></g><g class="relationship" transform="translate(-425.2649847464161 -177.62898392912493) rotate(388.13922978623725)"><path class="outline" fill="#A5ABB6" stroke="none" d="M 25 0.5 L 165.93842279596421 0.5 L 165.93842279596421 -0.5 L 25 -0.5 Z M 197.28607904596421 0.5 L 338.22450184192843 0.5 L 338.22450184192843 3.5 L 345.22450184192843 0 L 338.22450184192843 -3.5 L 338.22450184192843 -0.5 L 197.28607904596421 -0.5 Z"/><text text-anchor="middle" pointer-events="none" font-size="8px" fill="#000000" x="181.61225092096421" y="3" font-family="sans-serif">CALLS</text></g><g class="relationship" transform="translate(-425.2649847464161 -177.62898392912493) rotate(405.5855859127159)"><path class="outline" fill="#A5ABB6" stroke="none" d="M 25 0.5 L 107.74800050569999 0.5 L 107.74800050569999 -0.5 L 25 -0.5 Z M 139.0956567557 0.5 L 221.84365726139998 0.5 L 221.84365726139998 3.5 L 228.84365726139998 0 L 221.84365726139998 -3.5 L 221.84365726139998 -0.5 L 139.0956567557 -0.5 Z"/><text text-anchor="middle" pointer-events="none" font-size="8px" fill="#000000" x="123.42182863069999" y="3" font-family="sans-serif">CALLS</text></g><g class="relationship" transform="translate(-425.2649847464161 -177.62898392912493) rotate(349.6101697769452)"><path class="outline" fill="#A5ABB6" stroke="none" d="M 25 0.5 L 127.26230345898333 0.5 L 127.26230345898333 -0.5 L 25 -0.5 Z M 158.60995970898333 0.5 L 260.87226316796665 0.5 L 260.87226316796665 3.5 L 267.87226316796665 0 L 260.87226316796665 -3.5 L 260.87226316796665 -0.5 L 158.60995970898333 -0.5 Z"/><text text-anchor="middle" pointer-events="none" font-size="8px" fill="#000000" x="142.93613158398333" y="3" font-family="sans-serif">CALLS</text></g><g class="relationship" transform="translate(114.83442542403793 191.39564386136894) rotate(197.47836599799592)"><path class="outline" fill="#A5ABB6" stroke="none" d="M 25 0.5 L 26.462247731219804 0.5 L 26.462247731219804 -0.5 L 25 -0.5 Z M 77.3528727312198 0.5 L 78.81512046243961 0.5 L 78.81512046243961 3.5 L 85.81512046243961 0 L 78.81512046243961 -3.5 L 78.81512046243961 -0.5 L 77.3528727312198 -0.5 Z"/><text text-anchor="middle" pointer-events="none" font-size="8px" fill="#000000" x="51.907560231219804" y="3" transform="rotate(180 51.907560231219804 0)" font-family="sans-serif">CONNECTS</text></g><g class="relationship" transform="translate(836.8145638050494 181.50890512452662) rotate(251.9946656290798)"><path class="outline" fill="#A5ABB6" stroke="none" d="M 24.018736134675446,-6.953439040707552 L 24.277555179777966,-5.987513214418485 A 395.4203874375314 395.4203874375314 0 0 1 108.23366199055135,-19.033444508942523 L 108.1871640838576,-20.032362896336167 A 396.4203874375314 396.4203874375314 0 0 0 24.018736134675446,-6.953439040707552 Z M 139.5654580818472,-20.249703268794235 L 139.53280190113182,-19.250236624097624 A 395.4203874375314 395.4203874375314 0 0 1 223.66156884481612,-7.3685378104312615 L 222.92532693880372,-4.460282688226325 L 230.5702044476297,-6.135349216769861 L 224.6432247194993,-11.246211306704511 L 223.9069828134869,-8.337956184499575 A 396.4203874375314 396.4203874375314 0 0 0 139.5654580818472,-20.249703268794235"/><text text-anchor="middle" pointer-events="none" font-size="8px" fill="#000000" x="123.87762291104185" y="-16.951639229328748" transform="rotate(180 123.87762291104185 -19.951639229328748)" font-family="sans-serif">CALLS</text></g><g class="relationship" transform="translate(292.69482691912367 -281.511620491716) rotate(488.1510019846969)"><path class="outline" fill="#A5ABB6" stroke="none" d="M 25 0.5 L 290.03740744057484 0.5 L 290.03740744057484 -0.5 L 25 -0.5 Z M 321.38506369057484 0.5 L 586.4224711311497 0.5 L 586.4224711311497 3.5 L 593.4224711311497 0 L 586.4224711311497 -3.5 L 586.4224711311497 -0.5 L 321.38506369057484 -0.5 Z"/><text text-anchor="middle" pointer-events="none" font-size="8px" fill="#000000" x="305.71123556557484" y="3" transform="rotate(180 305.71123556557484 0)" font-family="sans-serif">CALLS</text></g><g class="relationship" transform="translate(292.69482691912367 -281.511620491716) rotate(383.4633937854571)"><path class="outline" fill="#A5ABB6" stroke="none" d="M 25 0.5 L 65.27055625210328 0.5 L 65.27055625210328 -0.5 L 25 -0.5 Z M 96.61821250210328 0.5 L 136.88876875420655 0.5 L 136.88876875420655 3.5 L 143.88876875420655 0 L 136.88876875420655 -3.5 L 136.88876875420655 -0.5 L 96.61821250210328 -0.5 Z"/><text text-anchor="middle" pointer-events="none" font-size="8px" fill="#000000" x="80.94438437710328" y="3" font-family="sans-serif">CALLS</text></g><g class="relationship" transform="translate(292.69482691912367 -281.511620491716) rotate(470.61127814542203)"><path class="outline" fill="#A5ABB6" stroke="none" d="M 25 0.5 L 233.45020235206667 0.5 L 233.45020235206667 -0.5 L 25 -0.5 Z M 264.79785860206664 0.5 L 473.24806095413334 0.5 L 473.24806095413334 3.5 L 480.24806095413334 0 L 473.24806095413334 -3.5 L 473.24806095413334 -0.5 L 264.79785860206664 -0.5 Z"/><text text-anchor="middle" pointer-events="none" font-size="8px" fill="#000000" x="249.12403047706667" y="3" transform="rotate(180 249.12403047706667 0)" font-family="sans-serif">CALLS</text></g><g class="relationship" transform="translate(292.69482691912367 -281.511620491716) rotate(428.9495131044743)"><path class="outline" fill="#A5ABB6" stroke="none" d="M 25 0.5 L 285.25558316584295 0.5 L 285.25558316584295 -0.5 L 25 -0.5 Z M 316.60323941584295 0.5 L 576.8588225816859 0.5 L 576.8588225816859 3.5 L 583.8588225816859 0 L 576.8588225816859 -3.5 L 576.8588225816859 -0.5 L 316.60323941584295 -0.5 Z"/><text text-anchor="middle" pointer-events="none" font-size="8px" fill="#000000" x="300.92941129084295" y="3" font-family="sans-serif">CALLS</text></g><g class="relationship" transform="translate(668.1517242299929 320.30106571613044) rotate(247.58168194811464)"><path class="outline" fill="#A5ABB6" stroke="none" d="M 25 0.5 L 269.9615279834925 0.5 L 269.9615279834925 -0.5 L 25 -0.5 Z M 301.3091842334925 0.5 L 546.270712216985 0.5 L 546.270712216985 3.5 L 553.270712216985 0 L 546.270712216985 -3.5 L 546.270712216985 -0.5 L 301.3091842334925 -0.5 Z"/><text text-anchor="middle" pointer-events="none" font-size="8px" fill="#000000" x="285.6353561084925" y="3" transform="rotate(180 285.6353561084925 0)" font-family="sans-serif">CALLS</text></g><g class="relationship" transform="translate(587.1612399783558 560.4232161358702) rotate(218.00040834314973)"><path class="outline" fill="#A5ABB6" stroke="none" d="M 25 0.5 L 280.52350621659923 0.5 L 280.52350621659923 -0.5 L 25 -0.5 Z M 311.87116246659923 0.5 L 567.3946686831985 0.5 L 567.3946686831985 3.5 L 574.3946686831985 0 L 567.3946686831985 -3.5 L 567.3946686831985 -0.5 L 311.87116246659923 -0.5 Z"/><text text-anchor="middle" pointer-events="none" font-size="8px" fill="#000000" x="296.19733434159923" y="3" transform="rotate(180 296.19733434159923 0)" font-family="sans-serif">CALLS</text></g><g class="relationship" transform="translate(511.3910992131282 286.71457242820156) rotate(446.54125136059224)"><path class="outline" fill="#A5ABB6" stroke="none" d="M 25 0.5 L 57.40912140835222 0.5 L 57.40912140835222 -0.5 L 25 -0.5 Z M 88.75677765835222 0.5 L 121.16589906670444 0.5 L 121.16589906670444 3.5 L 128.16589906670444 0 L 121.16589906670444 -3.5 L 121.16589906670444 -0.5 L 88.75677765835222 -0.5 Z"/><text text-anchor="middle" pointer-events="none" font-size="8px" fill="#000000" x="73.08294953335222" y="3" font-family="sans-serif">CALLS</text></g><g class="relationship" transform="translate(511.3910992131282 286.71457242820156) rotate(476.967264317324)"><path class="outline" fill="#A5ABB6" stroke="none" d="M 25 0.5 L 200.50343500609603 0.5 L 200.50343500609603 -0.5 L 25 -0.5 Z M 231.85109125609603 0.5 L 407.35452626219205 0.5 L 407.35452626219205 3.5 L 414.35452626219205 0 L 407.35452626219205 -3.5 L 407.35452626219205 -0.5 L 231.85109125609603 -0.5 Z"/><text text-anchor="middle" pointer-events="none" font-size="8px" fill="#000000" x="216.17726313109603" y="3" transform="rotate(180 216.17726313109603 0)" font-family="sans-serif">CALLS</text></g><g class="relationship" transform="translate(511.3910992131282 286.71457242820156) rotate(193.51558534524418)"><path class="outline" fill="#A5ABB6" stroke="none" d="M 25 0.5 L 184.75195106303931 0.5 L 184.75195106303931 -0.5 L 25 -0.5 Z M 216.09960731303931 0.5 L 375.85155837607863 0.5 L 375.85155837607863 3.5 L 382.85155837607863 0 L 375.85155837607863 -3.5 L 375.85155837607863 -0.5 L 216.09960731303931 -0.5 Z"/><text text-anchor="middle" pointer-events="none" font-size="8px" fill="#000000" x="200.42577918803931" y="3" transform="rotate(180 200.42577918803931 0)" font-family="sans-serif">CALLS</text></g><g class="relationship" transform="translate(-13.155138097504334 50.58975925948418) rotate(407.72982817283855)"><path class="outline" fill="#A5ABB6" stroke="none" d="M 25 0.5 L 75.967678995912 0.5 L 75.967678995912 -0.5 L 25 -0.5 Z M 107.315335245912 0.5 L 158.283014241824 0.5 L 158.283014241824 3.5 L 165.283014241824 0 L 158.283014241824 -3.5 L 158.283014241824 -0.5 L 107.315335245912 -0.5 Z"/><text text-anchor="middle" pointer-events="none" font-size="8px" fill="#000000" x="91.641507120912" y="3" font-family="sans-serif">CALLS</text></g><g class="relationship" transform="translate(-13.155138097504334 50.58975925948418) rotate(438.2878508271298)"><path class="outline" fill="#A5ABB6" stroke="none" d="M 25 0.5 L 25.959335396155332 0.5 L 25.959335396155332 -0.5 L 25 -0.5 Z M 76.84996039615532 0.5 L 77.80929579231066 0.5 L 77.80929579231066 3.5 L 84.80929579231066 0 L 77.80929579231066 -3.5 L 77.80929579231066 -0.5 L 76.84996039615532 -0.5 Z"/><text text-anchor="middle" pointer-events="none" font-size="8px" fill="#000000" x="51.40464789615533" y="3" font-family="sans-serif">CONNECTS</text></g><g class="relationship" transform="translate(-13.155138097504334 50.58975925948418) rotate(476.2859997674064)"><path class="outline" fill="#A5ABB6" stroke="none" d="M 25 0.5 L 66.82771838045744 0.5 L 66.82771838045744 -0.5 L 25 -0.5 Z M 98.17537463045744 0.5 L 140.00309301091488 0.5 L 140.00309301091488 3.5 L 147.00309301091488 0 L 140.00309301091488 -3.5 L 140.00309301091488 -0.5 L 98.17537463045744 -0.5 Z"/><text text-anchor="middle" pointer-events="none" font-size="8px" fill="#000000" x="82.50154650545744" y="3" transform="rotate(180 82.50154650545744 0)" font-family="sans-serif">CALLS</text></g><g class="relationship" transform="translate(-89.32707265613595 204.8068153554847) rotate(334.6282585671893)"><path class="outline" fill="#A5ABB6" stroke="none" d="M 25 0.5 L 25.541445492728812 0.5 L 25.541445492728812 -0.5 L 25 -0.5 Z M 76.43207049272881 0.5 L 76.97351598545762 0.5 L 76.97351598545762 3.5 L 83.97351598545762 0 L 76.97351598545762 -3.5 L 76.97351598545762 -0.5 L 76.43207049272881 -0.5 Z"/><text text-anchor="middle" pointer-events="none" font-size="8px" fill="#000000" x="50.98675799272881" y="3" font-family="sans-serif">CONNECTS</text></g><g class="relationship" transform="translate(-519.3161667998797 557.7217864336203) rotate(320.08347275521123)"><path class="outline" fill="#A5ABB6" stroke="none" d="M 25 0.5 L 47.08385539047069 0.5 L 47.08385539047069 -0.5 L 25 -0.5 Z M 78.43151164047069 0.5 L 100.51536703094138 0.5 L 100.51536703094138 3.5 L 107.51536703094138 0 L 100.51536703094138 -3.5 L 100.51536703094138 -0.5 L 78.43151164047069 -0.5 Z"/><text text-anchor="middle" pointer-events="none" font-size="8px" fill="#000000" x="62.75768351547069" y="3" font-family="sans-serif">CALLS</text></g><g class="relationship" transform="translate(-417.6795185817108 472.6905319543332) rotate(332.1552173105348)"><path class="outline" fill="#A5ABB6" stroke="none" d="M 25 0.5 L 281.948204707119 0.5 L 281.948204707119 -0.5 L 25 -0.5 Z M 313.295860957119 0.5 L 570.244065664238 0.5 L 570.244065664238 3.5 L 577.244065664238 0 L 570.244065664238 -3.5 L 570.244065664238 -0.5 L 313.295860957119 -0.5 Z"/><text text-anchor="middle" pointer-events="none" font-size="8px" fill="#000000" x="297.622032832119" y="3" font-family="sans-serif">CALLS</text></g><g class="relationship" transform="translate(-417.6795185817108 472.6905319543332) rotate(320.7909895254732)"><path class="outline" fill="#A5ABB6" stroke="none" d="M 25 0.5 L 192.70881295498543 0.5 L 192.70881295498543 -0.5 L 25 -0.5 Z M 224.05646920498543 0.5 L 391.76528215997087 0.5 L 391.76528215997087 3.5 L 398.76528215997087 0 L 391.76528215997087 -3.5 L 391.76528215997087 -0.5 L 224.05646920498543 -0.5 Z"/><text text-anchor="middle" pointer-events="none" font-size="8px" fill="#000000" x="208.38264107998543" y="3" font-family="sans-serif">CALLS</text></g><g class="relationship" transform="translate(-417.6795185817108 472.6905319543332) rotate(351.92006842126455)"><path class="outline" fill="#A5ABB6" stroke="none" d="M 25 0.5 L 65.97426394323409 0.5 L 65.97426394323409 -0.5 L 25 -0.5 Z M 97.32192019323409 0.5 L 138.29618413646818 0.5 L 138.29618413646818 3.5 L 145.29618413646818 0 L 138.29618413646818 -3.5 L 138.29618413646818 -0.5 L 97.32192019323409 -0.5 Z"/><text text-anchor="middle" pointer-events="none" font-size="8px" fill="#000000" x="81.64809206823409" y="3" font-family="sans-serif">CALLS</text></g></g><g class="layer nodes"><g class="node" transform="translate(-249.0738733407798,448.7546441635868)"><circle class="outline" cx="0" cy="0" r="25" fill="#A5ABB6" stroke="#9AA1AC" stroke-width="2px"/><text text-anchor="middle" pointer-events="none" font-family="sans-serif" dy="1.5625" font-size="25" fill="#FFFFFF"/><text text-anchor="middle" pointer-events="none" x="0" y="5" font-size="10px" fill="#FFFFFF" font-family="sans-serif"> applicati…</text></g><g class="node" transform="translate(758.0527218531975,-60.81834995952815)"><circle class="outline" cx="0" cy="0" r="25" fill="#A5ABB6" stroke="#9AA1AC" stroke-width="2px"/><text text-anchor="middle" pointer-events="none" font-family="sans-serif" dy="1.5625" font-size="25" fill="#FFFFFF"/><text text-anchor="middle" pointer-events="none" x="0" y="5" font-size="10px" fill="#FFFFFF" font-family="sans-serif"> applicati…</text></g><g class="node" transform="translate(-662.2647366942977,-60.54661356395846)"><circle class="outline" cx="0" cy="0" r="25" fill="#A5ABB6" stroke="#9AA1AC" stroke-width="2px"/><text text-anchor="middle" pointer-events="none" font-family="sans-serif" dy="1.5625" font-size="25" fill="#FFFFFF"/><text text-anchor="middle" pointer-events="none" x="0" y="5" font-size="10px" fill="#FFFFFF" font-family="sans-serif"> applicati…</text></g><g class="node" transform="translate(632.8989540609059,653.4777140492695)"><circle class="outline" cx="0" cy="0" r="25" fill="#A5ABB6" stroke="#9AA1AC" stroke-width="2px"/><text text-anchor="middle" pointer-events="none" font-family="sans-serif" dy="1.5625" font-size="25" fill="#FFFFFF"/><text text-anchor="middle" pointer-events="none" x="0" y="5" font-size="10px" fill="#FFFFFF" font-family="sans-serif"> applicati…</text></g><g class="node" transform="translate(-60.52152017074262,700.2682920173738)"><circle class="outline" cx="0" cy="0" r="25" fill="#A5ABB6" stroke="#9AA1AC" stroke-width="2px"/><text text-anchor="middle" pointer-events="none" font-family="sans-serif" dy="1.5625" font-size="25" fill="#FFFFFF"/><text text-anchor="middle" pointer-events="none" x="0" y="5" font-size="10px" fill="#FFFFFF" font-family="sans-serif"> casewor…</text></g><g class="node" transform="translate(-229.90206802823815,692.5574185945397)"><circle class="outline" cx="0" cy="0" r="25" fill="#A5ABB6" stroke="#9AA1AC" stroke-width="2px"/><text text-anchor="middle" pointer-events="none" font-family="sans-serif" dy="1.5625" font-size="25" fill="#FFFFFF"/><text text-anchor="middle" pointer-events="none" x="0" y="5" font-size="10px" fill="#FFFFFF" font-family="sans-serif"> casewor…</text></g><g class="node" transform="translate(-165.59431306990226,604.424349427774)"><circle class="outline" cx="0" cy="0" r="25" fill="#A5ABB6" stroke="#9AA1AC" stroke-width="2px"/><text text-anchor="middle" pointer-events="none" font-family="sans-serif" dy="1.5625" font-size="25" fill="#FFFFFF"/><text text-anchor="middle" pointer-events="none" x="0" y="5" font-size="10px" fill="#FFFFFF" font-family="sans-serif"> casewor…</text></g><g class="node" transform="translate(447.61896830727875,-214.26634834225712)"><circle class="outline" cx="0" cy="0" r="25" fill="#A5ABB6" stroke="#9AA1AC" stroke-width="2px"/><text text-anchor="middle" pointer-events="none" font-family="sans-serif" dy="1.5625" font-size="25" fill="#FFFFFF"/><text text-anchor="middle" pointer-events="none" x="0" y="5" font-size="10px" fill="#FFFFFF" font-family="sans-serif"> commer…</text></g><g class="node" transform="translate(357.5799076959852,185.72324098776153)"><circle class="outline" cx="0" cy="0" r="25" fill="#A5ABB6" stroke="#9AA1AC" stroke-width="2px"/><text text-anchor="middle" pointer-events="none" font-family="sans-serif" dy="1.5625" font-size="25" fill="#FFFFFF"/><text text-anchor="middle" pointer-events="none" x="0" y="5" font-size="10px" fill="#FFFFFF" font-family="sans-serif"> completi…</text></g><g class="node" transform="translate(-436.81958662468054,53.153977812571284)"><circle class="outline" cx="0" cy="0" r="25" fill="#A5ABB6" stroke="#9AA1AC" stroke-width="2px"/><text text-anchor="middle" pointer-events="none" font-family="sans-serif" dy="1.5625" font-size="25" fill="#FFFFFF"/><text text-anchor="middle" pointer-events="none" x="0" y="5" font-size="10px" fill="#FFFFFF" font-family="sans-serif"> docume…</text></g><g class="node" transform="translate(-336.7327983672799,110.70437083560472)"><circle class="outline" cx="0" cy="0" r="25" fill="#A5ABB6" stroke="#9AA1AC" stroke-width="2px"/><text text-anchor="middle" pointer-events="none" font-family="sans-serif" dy="1.5625" font-size="25" fill="#FFFFFF"/><text text-anchor="middle" pointer-events="none" x="0" y="5" font-size="10px" fill="#FFFFFF" font-family="sans-serif"> docume…</text></g><g class="node" transform="translate(696.1340071431747,168.762506347216)"><circle class="outline" cx="0" cy="0" r="25" fill="#A5ABB6" stroke="#9AA1AC" stroke-width="2px"/><text text-anchor="middle" pointer-events="none" font-family="sans-serif" dy="1.5625" font-size="25" fill="#FFFFFF"/><text text-anchor="middle" pointer-events="none" x="0" y="5" font-size="10px" fill="#FFFFFF" font-family="sans-serif"> event-pu…</text></g><g class="node" transform="translate(1035.5123700387585,195.07127736032396)"><circle class="outline" cx="0" cy="0" r="25" fill="#A5ABB6" stroke="#9AA1AC" stroke-width="2px"/><text text-anchor="middle" pointer-events="none" font-family="sans-serif" dy="1.5625" font-size="25" fill="#FFFFFF"/><text text-anchor="middle" pointer-events="none" x="0" y="5" font-size="10px" fill="#FFFFFF" font-family="sans-serif"> failure-h…</text></g><g class="node" transform="translate(-98.79947790732001,-3.025276613397587)"><circle class="outline" cx="0" cy="0" r="25" fill="#A5ABB6" stroke="#9AA1AC" stroke-width="2px"/><text text-anchor="middle" pointer-events="none" font-family="sans-serif" dy="1.5625" font-size="25" fill="#FFFFFF"/><text text-anchor="middle" pointer-events="none" x="0" y="5" font-size="10px" fill="#FFFFFF" font-family="sans-serif"> identific…</text></g><g class="node" transform="translate(138.33517623429452,685.6518441392933)"><circle class="outline" cx="0" cy="0" r="25" fill="#A5ABB6" stroke="#9AA1AC" stroke-width="2px"/><text text-anchor="middle" pointer-events="none" font-family="sans-serif" dy="1.5625" font-size="25" fill="#FFFFFF"/><text text-anchor="middle" pointer-events="none" x="0" y="5" font-size="10px" fill="#FFFFFF" font-family="sans-serif"> lrpg-ada…</text></g><g class="node" transform="translate(11.956262296674737,-225.03120802801786)"><circle class="outline" cx="0" cy="0" r="25" fill="#A5ABB6" stroke="#9AA1AC" stroke-width="2px"/><text text-anchor="middle" pointer-events="none" font-family="sans-serif" dy="1.5625" font-size="25" fill="#FFFFFF"/><text text-anchor="middle" pointer-events="none" x="0" y="5" font-size="10px" fill="#FFFFFF" font-family="sans-serif"> manage…</text></g><g class="node" transform="translate(-247.6142627327489,3.6906876453235355)"><circle class="outline" cx="0" cy="0" r="25" fill="#A5ABB6" stroke="#9AA1AC" stroke-width="2px"/><text text-anchor="middle" pointer-events="none" font-family="sans-serif" dy="1.5625" font-size="25" fill="#FFFFFF"/><text text-anchor="middle" pointer-events="none" x="0" y="5" font-size="10px" fill="#FFFFFF" font-family="sans-serif"> normalis…</text></g><g class="node" transform="translate(-720.5312491427532,44.296846691139905)"><circle class="outline" cx="0" cy="0" r="25" fill="#A5ABB6" stroke="#9AA1AC" stroke-width="2px"/><text text-anchor="middle" pointer-events="none" font-family="sans-serif" dy="1.5625" font-size="25" fill="#FFFFFF"/><text text-anchor="middle" pointer-events="none" x="0" y="5" font-size="10px" fill="#FFFFFF" font-family="sans-serif"> obtain</text></g><g class="node" transform="translate(758.9382569367372,493.2331916411558)"><circle class="outline" cx="0" cy="0" r="25" fill="#A5ABB6" stroke="#9AA1AC" stroke-width="2px"/><text text-anchor="middle" pointer-events="none" font-family="sans-serif" dy="1.5625" font-size="25" fill="#FFFFFF"/><text text-anchor="middle" pointer-events="none" x="0" y="5" font-size="10px" fill="#FFFFFF" font-family="sans-serif"> orchestr…</text></g><g class="node" transform="translate(-49.782337682306135,-115.50882131339117)"><circle class="outline" cx="0" cy="0" r="25" fill="#A5ABB6" stroke="#9AA1AC" stroke-width="2px"/><text text-anchor="middle" pointer-events="none" font-family="sans-serif" dy="1.5625" font-size="25" fill="#FFFFFF"/><text text-anchor="middle" pointer-events="none" x="0" y="5" font-size="10px" fill="#FFFFFF" font-family="sans-serif"> order-pr…</text></g><g class="node" transform="translate(-137.19480258969546,-230.44690404456037)"><circle class="outline" cx="0" cy="0" r="25" fill="#A5ABB6" stroke="#9AA1AC" stroke-width="2px"/><text text-anchor="middle" pointer-events="none" font-family="sans-serif" dy="1.5625" font-size="25" fill="#FFFFFF"/><text text-anchor="middle" pointer-events="none" x="0" y="5" font-size="10px" fill="#FFFFFF" font-family="sans-serif"> order-st…</text></g><g class="node" transform="translate(312.15201413190573,678.2962200102513)"><circle class="outline" cx="0" cy="0" r="25" fill="#A5ABB6" stroke="#9AA1AC" stroke-width="2px"/><text text-anchor="middle" pointer-events="none" font-family="sans-serif" dy="1.5625" font-size="25" fill="#FFFFFF"/><text text-anchor="middle" pointer-events="none" x="0" y="5" font-size="10px" fill="#FFFFFF" font-family="sans-serif"> ppi-adap…</text></g><g class="node" transform="translate(-425.2649847464161,-177.62898392912493)"><circle class="outline" cx="0" cy="0" r="25" fill="#A5ABB6" stroke="#9AA1AC" stroke-width="2px"/><text text-anchor="middle" pointer-events="none" font-family="sans-serif" dy="1.5625" font-size="25" fill="#FFFFFF"/><text text-anchor="middle" pointer-events="none" x="0" y="5" font-size="10px" fill="#FFFFFF" font-family="sans-serif"> preproc…</text></g><g class="node" transform="translate(114.83442542403793,191.39564386136894)"><circle class="outline" cx="0" cy="0" r="25" fill="#A5ABB6" stroke="#9AA1AC" stroke-width="2px"/><text text-anchor="middle" pointer-events="none" font-family="sans-serif" dy="1.5625" font-size="25" fill="#FFFFFF"/><text text-anchor="middle" pointer-events="none" x="0" y="5" font-size="10px" fill="#FFFFFF" font-family="sans-serif"> register-…</text></g><g class="node" transform="translate(836.8145638050494,181.50890512452662)"><circle class="outline" cx="0" cy="0" r="25" fill="#A5ABB6" stroke="#9AA1AC" stroke-width="2px"/><text text-anchor="middle" pointer-events="none" font-family="sans-serif" dy="1.5625" font-size="25" fill="#FFFFFF"/><text text-anchor="middle" pointer-events="none" x="0" y="5" font-size="10px" fill="#FFFFFF" font-family="sans-serif"> rejection…</text></g><g class="node" transform="translate(292.69482691912367,-281.511620491716)"><circle class="outline" cx="0" cy="0" r="25" fill="#A5ABB6" stroke="#9AA1AC" stroke-width="2px"/><text text-anchor="middle" pointer-events="none" font-family="sans-serif" dy="1.5625" font-size="25" fill="#FFFFFF"/><text text-anchor="middle" pointer-events="none" x="0" y="5" font-size="10px" fill="#FFFFFF" font-family="sans-serif"> suitability</text></g><g class="node" transform="translate(668.1517242299929,320.30106571613044)"><circle class="outline" cx="0" cy="0" r="25" fill="#A5ABB6" stroke="#9AA1AC" stroke-width="2px"/><text text-anchor="middle" pointer-events="none" font-family="sans-serif" dy="1.5625" font-size="25" fill="#FFFFFF"/><text text-anchor="middle" pointer-events="none" x="0" y="5" font-size="10px" fill="#FFFFFF" font-family="sans-serif"> template…</text></g><g class="node" transform="translate(520.6315817607731,439.60147873217045)"><circle class="outline" cx="0" cy="0" r="25" fill="#A5ABB6" stroke="#9AA1AC" stroke-width="2px"/><text text-anchor="middle" pointer-events="none" font-family="sans-serif" dy="1.5625" font-size="25" fill="#FFFFFF"/><text text-anchor="middle" pointer-events="none" x="0" y="5" font-size="10px" fill="#FFFFFF" font-family="sans-serif"> title-stag…</text></g><g class="node" transform="translate(587.1612399783558,560.4232161358702)"><circle class="outline" cx="0" cy="0" r="25" fill="#A5ABB6" stroke="#9AA1AC" stroke-width="2px"/><text text-anchor="middle" pointer-events="none" font-family="sans-serif" dy="1.5625" font-size="25" fill="#FFFFFF"/><text text-anchor="middle" pointer-events="none" x="0" y="5" font-size="10px" fill="#FFFFFF" font-family="sans-serif"> title-upd…</text></g><g class="node" transform="translate(511.3910992131282,286.71457242820156)"><circle class="outline" cx="0" cy="0" r="25" fill="#A5ABB6" stroke="#9AA1AC" stroke-width="2px"/><text text-anchor="middle" pointer-events="none" font-family="sans-serif" dy="1.5625" font-size="25" fill="#FFFFFF"/><text text-anchor="middle" pointer-events="none" x="0" y="5" font-size="10px" fill="#FFFFFF" font-family="sans-serif"> title-vali…</text></g><g class="node" transform="translate(-13.155138097504334,50.58975925948418)"><circle class="outline" cx="0" cy="0" r="25" fill="#A5ABB6" stroke="#9AA1AC" stroke-width="2px"/><text text-anchor="middle" pointer-events="none" font-family="sans-serif" dy="1.5625" font-size="25" fill="#FFFFFF"/><text text-anchor="middle" pointer-events="none" x="0" y="5" font-size="10px" fill="#FFFFFF" font-family="sans-serif"> working-…</text></g><g class="node" transform="translate(9.135592018104887,158.11280234010133)"><circle class="outline" cx="0" cy="0" r="25" fill="#8DCC93" stroke="#5db665" stroke-width="2px"/><text text-anchor="middle" pointer-events="none" font-family="sans-serif" dy="1.5625" font-size="25" fill="#2A2C34"/><text text-anchor="middle" pointer-events="none" x="0" y="5" font-size="10px" fill="#2A2C34" font-family="sans-serif"> db2</text></g><g class="node" transform="translate(-89.32707265613595,204.8068153554847)"><circle class="outline" cx="0" cy="0" r="25" fill="#A5ABB6" stroke="#9AA1AC" stroke-width="2px"/><text text-anchor="middle" pointer-events="none" font-family="sans-serif" dy="1.5625" font-size="25" fill="#FFFFFF"/><text text-anchor="middle" pointer-events="none" x="0" y="5" font-size="10px" fill="#FFFFFF" font-family="sans-serif"> applicati…</text></g><g class="node" transform="translate(-519.3161667998797,557.7217864336203)"><circle class="outline" cx="0" cy="0" r="25" fill="#A5ABB6" stroke="#9AA1AC" stroke-width="2px"/><text text-anchor="middle" pointer-events="none" font-family="sans-serif" dy="1.5625" font-size="25" fill="#FFFFFF"/><text text-anchor="middle" pointer-events="none" x="0" y="5" font-size="10px" fill="#FFFFFF" font-family="sans-serif"> applicati…</text></g><g class="node" transform="translate(-417.6795185817108,472.6905319543332)"><circle class="outline" cx="0" cy="0" r="25" fill="#A5ABB6" stroke="#9AA1AC" stroke-width="2px"/><text text-anchor="middle" pointer-events="none" font-family="sans-serif" dy="1.5625" font-size="25" fill="#FFFFFF"/><text text-anchor="middle" pointer-events="none" x="0" y="5" font-size="10px" fill="#FFFFFF" font-family="sans-serif"> applicati…</text></g></g></svg>